<svg width="34" height="34" viewBox="0 0 34 34" fill="none" xmlns="http://www.w3.org/2000/svg">
<path d="M30.9167 14.9166H11.0833C10.3319 14.9166 9.61122 15.2151 9.07986 15.7465C8.54851 16.2778 8.25 16.9985 8.25 17.75V30.5C8.25 31.2514 8.54851 31.9721 9.07986 32.5034C9.61122 33.0348 10.3319 33.3333 11.0833 33.3333H30.9167C31.6681 33.3333 32.3888 33.0348 32.9201 32.5034C33.4515 31.9721 33.75 31.2514 33.75 30.5V17.75C33.75 16.9985 33.4515 16.2778 32.9201 15.7465C32.3888 15.2151 31.6681 14.9166 30.9167 14.9166ZM17.1977 25.281L19.4672 27.2643C19.8993 27.6411 20.4461 27.8281 21 27.8281C21.5539 27.8281 22.1007 27.6397 22.5328 27.2643L24.8023 25.281L24.7499 25.3334L29.9151 30.4985H12.0849L17.2501 25.3334L17.1977 25.281ZM11.0833 29.4984V19.9316L16.1862 24.3955L11.0833 29.4984ZM25.8138 24.3955L30.9167 19.9316V29.4941L25.8138 24.3955ZM30.9167 17.75V18.0475L21.6007 26.199C21.43 26.335 21.2183 26.4092 21 26.4092C20.7817 26.4092 20.57 26.335 20.3993 26.199L11.0833 18.0475V17.75H30.9167Z" fill="black"/>
</svg>
