<svg width="40" height="40" viewBox="0 0 40 40" fill="none" xmlns="http://www.w3.org/2000/svg">
<path d="M33.2568 16.7471H25.6858C25.4796 16.747 25.2754 16.7845 25.0853 16.8572C24.8951 16.93 24.7228 17.0365 24.5784 17.1707C24.434 17.3049 24.3204 17.464 24.2443 17.6386C24.1682 17.8133 24.1311 18 24.1351 18.1879V22.0949C24.1351 22.4697 24.2985 22.8292 24.5893 23.0942C24.8801 23.3592 25.2745 23.5081 25.6858 23.5081H29.6081C29.6301 24.5791 29.404 25.6423 28.9447 26.6283C28.4854 27.6144 27.8031 28.501 26.9424 29.2305C26.0816 29.96 25.0618 30.516 23.9494 30.862C22.837 31.2081 21.657 31.3365 20.4865 31.239C13.6757 31.239 10.3919 25.9742 10.3919 19.989C10.3919 14.0038 13.9189 8.7391 20.4865 8.7391C23.3859 8.65143 26.2271 9.49487 28.5135 11.1221C28.6963 11.2311 28.9031 11.3021 29.1193 11.3302C29.3355 11.3583 29.5559 11.3427 29.7648 11.2845C29.9736 11.2264 30.1659 11.127 30.328 10.9936C30.4901 10.8602 30.618 10.696 30.7027 10.5125L32.6182 6.52237C32.7758 6.22827 32.8164 5.89346 32.7333 5.57509C32.6501 5.25672 32.4482 4.97453 32.1622 4.77669C28.6755 2.87666 24.6694 1.91591 20.6081 2.00577C9.54054 1.97806 2 9.81976 2 19.989C2 30.1583 9.57095 38 20.4865 38C31.402 38 38 30.9064 38 21.3745C38 18.3265 36.6622 16.7471 33.2568 16.7471Z" stroke="black" stroke-width="2.66545" stroke-linecap="round" stroke-linejoin="round"/>
</svg>
