<svg width="44" height="40" viewBox="0 0 44 40" fill="none" xmlns="http://www.w3.org/2000/svg">
<path d="M12.6501 27.7088C10.4111 29.5114 7.84109 30.8339 5.09315 31.5976C4.79048 31.7102 4.52897 31.9156 4.34417 32.1859C4.15936 32.4561 4.06022 32.7781 4.06022 33.1082C4.06022 33.4382 4.15936 33.7602 4.34417 34.0305C4.52897 34.3007 4.79048 34.5061 5.09315 34.6187C26.792 43.7462 40.5889 29.6371 38.488 13.9853L42 6.52905H37.9236C32.8438 0.133353 19.3605 0.454745 21.5868 14.0818C21.5868 14.0818 14.3747 15.3995 5.15587 6.11124C4.94262 5.89545 4.67349 5.74682 4.38037 5.68295C4.08725 5.61908 3.78242 5.64265 3.50196 5.75087C3.22151 5.85908 2.97719 6.04742 2.79793 6.29356C2.61868 6.5397 2.51201 6.83334 2.49055 7.1397C1.51577 11.2466 2.00359 15.5753 3.86617 19.3463C5.72875 23.1173 8.84371 26.0828 12.6501 27.7088Z" stroke="black" stroke-width="3.98953" stroke-linecap="round" stroke-linejoin="round"/>
</svg>
