<svg width="40" height="40" viewBox="0 0 40 40" fill="none" xmlns="http://www.w3.org/2000/svg">
<path d="M2 35.2308V4.76923C2 4.03479 2.29176 3.33042 2.81109 2.81109C3.33042 2.29176 4.03479 2 4.76923 2H35.2308C35.9652 2 36.6696 2.29176 37.1889 2.81109C37.7082 3.33042 38 4.03479 38 4.76923V35.2308C38 35.9652 37.7082 36.6696 37.1889 37.1889C36.6696 37.7082 35.9652 38 35.2308 38H26.9231V24.8738H28.8892C29.3372 24.8738 29.7669 24.6959 30.0837 24.3791C30.4005 24.0623 30.5785 23.6326 30.5785 23.1846V21.0523C30.5785 20.6043 30.4005 20.1746 30.0837 19.8578C29.7669 19.541 29.3372 19.3631 28.8892 19.3631H27.0338V16.76C27.0338 14.4338 28.0862 14.4338 29.1385 14.4338H30.4954C30.7183 14.443 30.9404 14.4031 31.1462 14.317C31.352 14.2309 31.5363 14.1006 31.6862 13.9354C31.8471 13.7822 31.9745 13.5972 32.0603 13.3923C32.1461 13.1873 32.1884 12.9668 32.1846 12.7446V10.6954C32.192 10.4699 32.1549 10.2451 32.0754 10.034C31.9958 9.82286 31.8755 9.62946 31.7212 9.46486C31.5669 9.30026 31.3816 9.16769 31.176 9.07473C30.9705 8.98177 30.7486 8.93023 30.5231 8.92308H27.3385C26.4092 8.88814 25.4835 9.05534 24.6252 9.41311C23.7669 9.77089 22.9965 10.3107 22.3672 10.9953C21.7379 11.6799 21.2647 12.4929 20.9803 13.3782C20.6959 14.2636 20.6071 15.2001 20.72 16.1231V19.3631H18.9477C18.7235 19.3594 18.5009 19.4004 18.2927 19.4836C18.0846 19.5669 17.8951 19.6907 17.7353 19.8479C17.5755 20.0052 17.4486 20.1926 17.362 20.3994C17.2753 20.6062 17.2307 20.8281 17.2308 21.0523V23.1846C17.2307 23.4088 17.2753 23.6307 17.362 23.8375C17.4486 24.0443 17.5755 24.2318 17.7353 24.389C17.8951 24.5462 18.0846 24.6701 18.2927 24.7533C18.5009 24.8365 18.7235 24.8775 18.9477 24.8738H20.72V38H4.76923C4.03479 38 3.33042 37.7082 2.81109 37.1889C2.29176 36.6696 2 35.9652 2 35.2308Z" stroke="black" stroke-width="2.76923" stroke-linecap="round" stroke-linejoin="round"/>
</svg>
