<svg width="18" height="25" viewBox="0 0 18 25" fill="none" xmlns="http://www.w3.org/2000/svg">
<path d="M8.63788 0C13.4004 0 17.2754 3.70603 17.2754 8.25962C17.2754 10.4282 16.2869 13.312 14.3376 16.8313C12.772 19.6568 10.9608 22.2119 10.0188 23.4832C9.85962 23.7005 9.65149 23.8771 9.41129 23.9989C9.17108 24.1207 8.90557 24.1841 8.63626 24.1841C8.36695 24.1841 8.10143 24.1207 7.86123 23.9989C7.62103 23.8771 7.4129 23.7005 7.25372 23.4832C6.31331 22.2119 4.50051 19.6568 2.93496 16.8313C0.988821 13.3131 0.000366211 10.4293 0.000366211 8.25962C0.000366211 3.70603 3.87537 0 8.63788 0ZM8.63788 12.0925C9.32121 12.0925 9.9892 11.8899 10.5574 11.5102C11.1255 11.1306 11.5684 10.591 11.8299 9.95969C12.0914 9.32837 12.1598 8.63368 12.0265 7.96347C11.8932 7.29327 11.5641 6.67765 11.0809 6.19446C10.5977 5.71126 9.98212 5.38221 9.31192 5.24889C8.64171 5.11558 7.94703 5.184 7.31571 5.4455C6.68439 5.70701 6.14479 6.14984 5.76515 6.71802C5.38551 7.28619 5.18287 7.95418 5.18287 8.63751C5.18387 9.55353 5.5482 10.4317 6.19593 11.0795C6.84365 11.7272 7.72186 12.0915 8.63788 12.0925Z" fill="black"/>
</svg>
